<?xml version="1.0" encoding="UTF-8"?>
<svg width="100pt" height="100pt" version="1.1" viewBox="0 0 100 100" xmlns="http://www.w3.org/2000/svg">
 <path d="m52.465 23.926c-0.78125 0.003907-1.5273 0.31641-2.0781 0.87109-0.54688 0.55078-0.85547 1.3008-0.85156 2.082 0.003906 1.6133 1.3125 2.9219 2.9297 2.9297h15.652c0.97656 0 1.6953 0.69531 1.6953 1.6719v37.039c0 0.97656-0.71484 1.6719-1.6953 1.6719h-15.652c-0.78125 0.003906-1.5273 0.31641-2.0781 0.87109-0.54688 0.55078-0.85547 1.3008-0.85156 2.082 0.003906 1.6172 1.3125 2.9219 2.9297 2.9297h15.652c4.1367 0 7.5547-3.418 7.5547-7.5547v-37.039c0-4.1367-3.418-7.5547-7.5547-7.5547zm-4.2578 11.703c-0.77734 0.011719-1.5195 0.33203-2.0625 0.89062-0.54688 0.55859-0.84375 1.3164-0.83203 2.0977s0.33594 1.5273 0.90234 2.0703l6.5586 6.3828h-25.516c-1.6172 0.007813-2.9219 1.3125-2.9297 2.9297-0.003906 0.78125 0.30469 1.5312 0.85156 2.082 0.55078 0.55469 1.2969 0.86719 2.0781 0.87109h25.5l-6.543 6.3828c-1.1602 1.1289-1.1914 2.9805-0.070313 4.1445 0.54297 0.56641 1.2891 0.89062 2.0703 0.90234 0.78516 0.015626 1.5391-0.28516 2.1016-0.83203l11.723-11.441c0.57031-0.55469 0.89063-1.3125 0.89063-2.1055 0-0.79297-0.32031-1.5547-0.89063-2.1055l-11.723-11.422c-0.5625-0.55469-1.3203-0.85937-2.1094-0.84766z" fill="#4b5462"/>
</svg>
