<?xml version="1.0" encoding="UTF-8"?>
<svg viewBox="0 0 512 512" xmlns="http://www.w3.org/2000/svg">
 <rect x="-51.2" y="-51.2" width="614.4" height="614.4" fill="#fff"/>
 <path d="m388.29 217.37c-1.4609-6.0703-4.3438-10.855-8.3398-13.855-5.3672-4.0312-12.496-4.3594-17.758-0.83203-4.4453 2.9961-6.7656 8.1602-6.8789 15.391l-0.023438 1.6875c-0.050781 3.6406-0.10156 7.0781-0.45312 10.555-0.52734 5.0898-1.3594 9.6211-2.5195 13.777-3.6641-0.050781-7.4297 1.1328-10.594 3.6289-2.9102 2.293-5 5.0391-7.0273 7.6953-0.50391 0.65625-0.99609 1.3086-1.5117 1.9531-0.64063 0.80469-1.2344 1.5742-1.7891 2.293-2.0273 2.6445-3.375 4.3828-5.7422 6.3086-1.6484 1.3359-3.4766 2.4922-5.6172 3.5273-2.2031 1.1953-4.4961 2.3164-6.8008 3.3516-3.5 1.5625-7.1523 2.9219-10.719 4.0312-5.2148 1.4844-10.102 3.8047-14.559 6.8789-4.293 2.9844-8.0742 6.6133-11.285 10.883-4.332 6.0469-7.4805 12.684-9.3594 19.711-2.168 8.0859-2.582 16.863-1.2227 25.418 0.49219 3.125 1.2344 6.2734 2.1914 9.3594 0.98438 3.1758 1.5117 6.5234 1.6758 10.543 0.30078 7.7578 6.1094 14.105 13.816 15.09l23.074 2.9492c0.21484 0 0.41406 0.011718 0.61719 0.011718 2.3945 0 4.4844-1.7891 4.7852-4.2305 0.33984-2.6445-1.5352-5.0625-4.1836-5.4141l-23.074-2.9492c-2.9961-0.37891-5.2539-2.8477-5.3672-5.8711-0.1875-4.8867-0.85547-9.0312-2.1016-13.035-0.82031-2.6445-1.4492-5.3398-1.875-8.0117-1.1445-7.2188-0.79297-14.609 1.0195-21.387 1.5742-5.9062 4.2305-11.488 7.8086-16.488 2.5195-3.3516 5.5547-6.2734 9.0039-8.6641 3.5781-2.4805 7.5078-4.332 11.801-5.5547 4.0312-1.2461 8.0352-2.7461 11.891-4.457 2.5312-1.1211 5.0508-2.3672 7.2812-3.5781 2.6055-1.2578 5.0625-2.8086 7.3047-4.6211 3.25-2.6445 5.1406-5.0898 7.332-7.9219 0.52734-0.67969 1.082-1.4102 1.6875-2.1797 0.55469-0.69141 1.082-1.3984 1.625-2.1016 1.7383-2.2812 3.375-4.4336 5.3281-5.9688 2.3555-1.8633 5.9961-2.4453 8.4258 0.023437 2.2148 2.2656 2.168 6.0703-0.15234 8.5391l-30.746 33.352c-1.8125 1.9648-1.6875 5.0273 0.27734 6.8281 1.9648 1.8125 5.0273 1.6875 6.8281-0.27734l30.707-33.301c5.8047-6.1445 5.8047-15.969 0-21.902-0.49219-0.50391-1.0469-0.91797-1.5859-1.3359 1.3867-4.8242 2.3789-10.062 2.9961-15.922 0.40234-3.918 0.45313-7.7344 0.50391-11.426l0.023437-1.6758c0.039063-2.6562 0.52734-6.1094 2.5938-7.5078 1.8125-1.2227 4.5078-0.99609 6.5508 0.54297 2.7344 2.0547 4.082 5.6914 4.7344 8.3867 1.5742 6.5 1.75 12.723 0.55469 19.586-3.7773 21.777-12.418 40.684-24.988 54.637-0.98438 1.082-1.9883 2.168-3.0469 3.2227-5.7422 5.8828-11.41 11.914-16.863 17.91-8.8164 9.7344-15.34 22.016-20.633 38.918-0.60547 1.9141-1.2344 3.9297-1.7891 5.957-0.70703 2.5703 0.82031 5.2383 3.4023 5.9453 0.42969 0.11328 0.85547 0.17578 1.2734 0.17578 2.1289 0 4.082-1.4102 4.6602-3.5664 0.52734-1.9141 1.1094-3.8047 1.7617-5.8711 4.7617-15.266 10.645-26.398 18.488-35.066 5.3672-5.918 10.957-11.863 16.602-17.633 1.1328-1.1445 2.2422-2.3164 3.3242-3.5273 13.793-15.328 23.25-35.898 27.332-59.473 1.4102-8.0625 1.1836-15.758-0.67969-23.465z" fill="#338462"/>
 <path d="m235.24 294.54c-3.1484-4.1836-6.9258-7.8086-11.223-10.793-4.4453-3.0859-9.3438-5.4023-14.445-6.8516-3.6758-1.1328-7.3164-2.5078-10.832-4.0664-2.3047-1.0195-4.5859-2.1406-7.0039-3.4492-1.9414-0.93359-3.7539-2.0781-5.4023-3.4141-2.3672-1.9258-3.7148-3.6758-5.7578-6.3086-0.55469-0.71875-1.1328-1.4727-1.7773-2.293-0.50391-0.64063-1.0078-1.2852-1.5-1.9414-2.0273-2.6562-4.1172-5.4141-7.0273-7.707-3.1602-2.4922-6.9141-3.6641-10.578-3.6289-1.3867-4.9258-2.293-10.328-2.8086-16.715-0.20312-2.6211-0.20312-5.2773-0.20312-8.0859l-0.011719-0.67969c0-7.4922-2.3164-12.848-6.8789-15.922-5.2656-3.5391-12.395-3.1992-17.758 0.83203-3.9805 2.9844-6.8633 7.7852-8.3242 13.855-1.8633 7.7227-2.0898 15.402-0.67969 23.516 4.082 23.578 13.539 44.145 27.332 59.473 1.082 1.1953 2.1914 2.3672 3.3008 3.5 5.668 5.793 11.246 11.738 16.613 17.66 7.8477 8.6523 13.715 19.801 18.488 35.066l0.15234 0.50391c0.54297 1.7383 1.1094 3.5273 1.5977 5.3672 0.57812 2.1523 2.5312 3.5664 4.6602 3.5664 0.41406 0 0.84375-0.050782 1.2734-0.17578 2.582-0.70703 4.0938-3.3633 3.4023-5.9336-0.52734-1.9531-1.1328-3.8672-1.6992-5.707l-0.15234-0.50391c-5.2031-16.652-11.727-28.945-20.555-38.668-5.4414-6.0078-11.121-12.043-16.879-17.938-1.0312-1.0469-2.0391-2.1172-3.0234-3.1992-12.57-13.969-21.211-32.871-24.988-54.648-1.1836-6.8789-1.0078-13.098 0.55469-19.586 0.65625-2.6953 2.0039-6.3359 4.7344-8.3867 2.0391-1.5352 4.75-1.75 6.5508-0.54297 2.1523 1.4492 2.6055 5.0898 2.6055 7.8984v0.66797c0 2.8711 0 5.8555 0.23828 8.8555 0.57812 7.2539 1.6641 13.414 3.3008 19.094-0.55469 0.42969-1.1094 0.84375-1.6133 1.3477-5.8047 5.9336-5.8047 15.758-0.050781 21.852l30.746 33.352c1.8125 1.9648 4.875 2.0898 6.8398 0.27734 1.9648-1.8125 2.0898-4.8633 0.27734-6.8281l-30.781-33.387c-2.2812-2.4453-2.332-6.2461-0.11328-8.5156 2.418-2.4688 6.0703-1.8906 8.4258-0.023437 1.9531 1.5352 3.5898 3.6914 5.3281 5.9688 0.52734 0.70703 1.0703 1.4102 1.6133 2.0898 0.61719 0.78125 1.1719 1.5 1.6992 2.1797 2.1797 2.832 4.0664 5.2891 7.332 7.9336 2.2305 1.8125 4.6836 3.3633 7.0898 4.5078 2.4297 1.3086 4.9492 2.5586 7.4805 3.6758 3.8555 1.7148 7.8594 3.2109 12.004 4.4961 4.1836 1.1836 8.1094 3.0469 11.688 5.5156 3.4492 2.3945 6.4727 5.3164 8.9414 8.5781 3.6523 5.1016 6.3086 10.68 7.8828 16.574 1.8125 6.7773 2.168 14.184 1.0195 21.387-0.42969 2.6719-1.0586 5.3672-1.875 8-1.2461 3.9922-1.9141 8.1367-2.1016 13.047-0.11328 3.0234-2.3672 5.4805-5.3672 5.8711l-23.074 2.9492c-2.6445 0.33984-4.5234 2.7578-4.1836 5.4141 0.30078 2.418 2.3789 4.207 4.7852 4.207 0.20312 0 0.41406-0.011718 0.61719-0.039062l23.062-2.9492c7.707-0.98438 13.516-7.332 13.816-15.09 0.15234-4.0312 0.69141-7.3828 1.6758-10.555 0.95703-3.0742 1.6875-6.2227 2.1914-9.3438 1.3594-8.5391 0.93359-17.332-1.2227-25.418-1.8906-7.0156-5.0391-13.641-9.4336-19.785z" fill="#338462"/>
 <path d="m335.01 187.87c-1.4609-14.559-9.8633-27.242-23.035-34.812-15.996-9.1953-36.148-7.0781-50.156 5.2773l-5.8203 5.125-4.5977-4.0547c-9.1445-8.0625-21.363-12.168-33.516-11.297-12.016 0.88281-22.875 6.3594-30.57 15.453-9.1172 10.781-12.609 25.43-9.3203 39.184 0.64062 2.6953 1.625 5.4023 2.9844 8.25l0.51562 1.082c1.3242 2.7695 2.7578 5.1641 4.3828 7.3047 1.7773 2.332 3.793 4.4961 5.9961 6.4375l56.703 49.992c2.1172 1.8633 4.7734 2.7969 7.4297 2.7969s5.3164-0.93359 7.4453-2.7969l56.68-49.977c10.758-9.4844 16.324-23.68 14.875-37.961zm-21.273 30.707-56.691 49.992c-0.59375 0.52734-1.4844 0.52734-2.0898 0l-56.691-49.992c-1.7266-1.5234-3.3008-3.2109-4.6836-5.0391-1.2227-1.6133-2.3164-3.4375-3.3516-5.6172l-0.51562-1.082c-1.0586-2.2305-1.8125-4.293-2.3047-6.3359-2.5703-10.781 0.15234-22.254 7.293-30.695 6.0078-7.0898 14.484-11.375 23.895-12.066 0.85547-0.0625 1.7148-0.10156 2.5703-0.10156 8.7148 0 17.281 3.2109 23.855 8.9922l10.996 9.6992 12.219-10.77c10.883-9.5977 26.539-11.273 38.945-4.1445 10.43 5.9961 17.078 15.984 18.238 27.395 1.1094 11.211-3.25 22.332-11.676 29.762z" fill="#338462"/>
</svg>
